<svg xmlns="http://www.w3.org/2000/svg" viewBox="0 0 1024 1024">
  <defs>
    <clipPath id="a">
      <path d="M0 0h1024v1024H0z"/>
    </clipPath>
  </defs>
  <g clip-path="url(#a)">
    <path fill="transparent" d="M0 0h1024v1024H0z"/>
    <path fill="currentColor" d="M88 112v8.305c71.43 0 76.4 58.969 76.4 222.6v368.76c0 163.628-4.972 222.6-76.4 222.6v8.307h224.232v-8.307c-71.426-.005-139.526-59.792-139.526-301.489V527.299l.818-356.331C299.769 441.74 374.534 602.882 504.933 881.93h7.458c102.175-274.076 186.065-502.462 275.746-742.525v572.258c0 163.628-4.972 222.6-76.4 222.6v8.307H936v-8.307c-71.43 0-76.433-58.969-76.433-222.6V342.905c0-163.628 5-222.6 76.433-222.6v-8.307H789.806L540.65 781.425 221.706 112Zm0 0"/>
  </g>
</svg>