<svg xmlns="http://www.w3.org/2000/svg" viewBox="0 0 256 256">
  <defs>
    <clipPath id="a">
      <path d="M0 0h256v256H0z"/>
    </clipPath>
  </defs>
  <g clip-path="url(#a)">
    <path fill="transparent" d="M0 0h256v256H0z"/>
    <path fill="currentColor" d="M10 12v2.312c19.879 0 21.263 16.411 21.263 61.949v102.626c0 45.538-1.384 61.949-21.263 61.949v2.312h62.406v-2.312c-19.879 0-38.83-16.639-38.83-83.9v-29.358l.23-99.167c35.134 75.356 55.942 120.2 92.232 197.862h2.068c28.435-76.276 51.782-139.836 76.74-206.646v159.26c0 45.538-1.384 61.949-21.263 61.949v2.312h62.413v-2.312c-19.879 0-21.271-16.411-21.271-61.949V76.26c0-45.538 1.392-61.949 21.271-61.949v-2.312h-40.683l-69.34 186.306L47.206 12Zm0 0"/>
  </g>
</svg>